<?xml version="1.0" encoding="UTF-8" standalone="no"?>
<!DOCTYPE svg PUBLIC "-//W3C//DTD SVG 1.1//EN" "http://www.w3.org/Graphics/SVG/1.1/DTD/svg11.dtd">
<!-- Created with Vectornator (http://vectornator.io/) -->
<svg height="100%" stroke-miterlimit="10" style="fill-rule:nonzero;clip-rule:evenodd;stroke-linecap:round;stroke-linejoin:round;" version="1.1" viewBox="0 0 87.6869 87.6874" width="100%" xml:space="preserve" xmlns="http://www.w3.org/2000/svg" xmlns:xlink="http://www.w3.org/1999/xlink">
<defs>
<filter color-interpolation-filters="sRGB" filterUnits="userSpaceOnUse" height="34.9343" id="Filter" width="36.1422" x="24.6156" y="24.9217">
<feGaussianBlur in="SourceGraphic" result="Blur" stdDeviation="2.29249"/>
</filter>
</defs>
<g id="Calque-1">
<g opacity="1">
<path d="M45.0689 50.2099C44.2929 52.4814 41.0805 52.4814 40.3045 50.2099L39.4589 47.7346C39.1154 46.7289 38.1772 46.0473 37.1146 46.0313L34.4991 45.992C32.0991 45.956 31.1064 42.9008 33.0268 41.4609L35.1197 39.8918C35.97 39.2542 36.3284 38.1514 36.0152 37.1358L35.2443 34.6362C34.537 32.3425 37.1359 30.4542 39.0987 31.8358L41.2378 33.3413C42.1069 33.953 43.2665 33.953 44.1356 33.3413L46.2747 31.8358C48.2375 30.4542 50.8364 32.3425 50.1291 34.6362L49.3582 37.1358C49.045 38.1514 49.4034 39.2542 50.2537 39.8918L52.3466 41.4609C54.267 42.9008 53.2743 45.956 50.8743 45.992L48.2588 46.0313C47.1962 46.0473 46.258 46.7289 45.9145 47.7346L45.0689 50.2099Z" fill="#d7abfa" fill-rule="nonzero" opacity="1" stroke="none"/>
<path d="M44.5764 48.5931C43.9609 50.3949 41.4125 50.3949 40.797 48.5931L40.1262 46.6295C39.8537 45.8317 39.1095 45.291 38.2665 45.2783L36.1917 45.2471C34.2879 45.2185 33.5004 42.7949 35.0239 41.6527L36.6841 40.408C37.3586 39.9023 37.6428 39.0274 37.3944 38.2218L36.7829 36.2389C36.2218 34.4194 38.2834 32.9215 39.8405 34.0175L41.5373 35.2118C42.2268 35.697 43.1466 35.697 43.8361 35.2118L45.5329 34.0175C47.09 32.9215 49.1516 34.4194 48.5905 36.2389L47.979 38.2218C47.7306 39.0274 48.0148 39.9023 48.6893 40.408L50.3495 41.6527C51.873 42.7949 51.0855 45.2185 49.1817 45.2471L47.1069 45.2783C46.2639 45.291 45.5197 45.8317 45.2472 46.6295L44.5764 48.5931Z" fill="#f7f9ff" fill-rule="nonzero" filter="url(#Filter)" opacity="1" stroke="none"/>
</g>
</g>
</svg>
