<?xml version="1.0" encoding="UTF-8" standalone="no"?>
<!DOCTYPE svg PUBLIC "-//W3C//DTD SVG 1.1//EN" "http://www.w3.org/Graphics/SVG/1.1/DTD/svg11.dtd">
<!-- Created with Vectornator (http://vectornator.io/) -->
<svg height="100%" stroke-miterlimit="10" style="fill-rule:nonzero;clip-rule:evenodd;stroke-linecap:round;stroke-linejoin:round;" version="1.1" viewBox="1032.09 1420.42 410.43 390.342" width="100%" xml:space="preserve" xmlns="http://www.w3.org/2000/svg" xmlns:vectornator="http://vectornator.io" xmlns:xlink="http://www.w3.org/1999/xlink">
<defs/>
<clipPath id="ArtboardFrame">
<rect height="390.342" width="410.43" x="1032.09" y="1420.42"/>
</clipPath>
<g clip-path="url(#ArtboardFrame)" id="Layer" vectornator:layerName="Layer">
<path d="M1268.73 1718.77C1258.5 1748.73 1216.12 1748.73 1205.88 1718.77L1194.73 1686.11C1190.19 1672.84 1177.82 1663.85 1163.8 1663.64L1129.29 1663.12C1097.63 1662.65 1084.54 1622.34 1109.87 1603.35L1137.48 1582.65C1148.7 1574.24 1153.43 1559.69 1149.29 1546.29L1139.13 1513.31C1129.79 1483.06 1164.08 1458.15 1189.97 1476.37L1218.19 1496.23C1229.66 1504.3 1244.96 1504.3 1256.42 1496.23L1284.64 1476.37C1310.53 1458.15 1344.82 1483.06 1335.49 1513.31L1325.32 1546.29C1321.19 1559.69 1325.91 1574.24 1337.13 1582.65L1364.74 1603.35C1390.08 1622.34 1376.98 1662.65 1345.32 1663.12L1310.82 1663.64C1296.8 1663.85 1284.42 1672.84 1279.89 1686.11L1268.73 1718.77Z" fill="#c6d1e8" fill-rule="nonzero" opacity="1" stroke="none" vectornator:layerName="Étoile 1"/>
</g>
</svg>
